<svg xmlns="http://www.w3.org/2000/svg" version="1.1" xmlns:xlink="http://www.w3.org/1999/xlink" xmlns:svgjs="http://svgjs.dev/svgjs" width="2000" height="373" viewBox="0 0 2000 373"><g transform="matrix(1,0,0,1,-1.2121212121212466,-1.0291644416342933)"><svg viewBox="0 0 396 74" data-background-color="#000000" preserveAspectRatio="xMidYMid meet" height="373" width="2000" xmlns="http://www.w3.org/2000/svg" xmlns:xlink="http://www.w3.org/1999/xlink"><g id="tight-bounds" transform="matrix(1,0,0,1,0.2400000000000091,0.2041773959274451)"><svg viewBox="0 0 395.52 73.59164520814508" height="73.59164520814508" width="395.52"><g><svg viewBox="0 0 523.6248713019063 97.42722428956947" height="73.59164520814508" width="395.52"><g transform="matrix(1,0,0,1,128.10487130190626,11.609786914542724)"><svg viewBox="0 0 395.52 74.20765046048402" height="74.20765046048402" width="395.52"><g id="textblocktransform"><svg viewBox="0 0 395.52 74.20765046048402" height="74.20765046048402" width="395.52" id="textblock"><g><svg viewBox="0 0 395.52 74.20765046048402" height="74.20765046048402" width="395.52"><g transform="matrix(1,0,0,1,0,0)"><svg width="395.52" viewBox="3.25 -33.9 233.43 43.8" height="74.20765046048402" data-palette-color="url(#c2e5c277-20d0-48ef-97c7-7158af904bab)"><g class="wordmark-text-0" data-fill-palette-color="primary" id="text-0"></g></svg></g></svg></g></svg></g></svg></g><g><svg viewBox="0 0 110.58622601179704 97.42722428956947" height="97.42722428956947" width="110.58622601179704"><g><svg xmlns="http://www.w3.org/2000/svg" xmlns:xlink="http://www.w3.org/1999/xlink" version="1.1" x="0" y="0" viewBox="6.3 11.5 87.4 77" style="enable-background:new 0 0 100 100;" xml:space="preserve" height="97.42722428956947" width="110.58622601179704" class="icon-icon-0" data-fill-palette-color="accent" id="icon-0"></svg></g></svg></g></svg></g><defs></defs><mask id="a9c4d228-1b91-45ae-99a3-91400b43b9b6"><g id="SvgjsG4027"><svg viewBox="0 0 395.52 73.59164520814508" height="73.59164520814508" width="395.52"><g><svg viewBox="0 0 523.6248713019063 97.42722428956947" height="73.59164520814508" width="395.52"><g transform="matrix(1,0,0,1,128.10487130190626,11.609786914542724)"><svg viewBox="0 0 395.52 74.20765046048402" height="74.20765046048402" width="395.52"><g id="SvgjsG4026"><svg viewBox="0 0 395.52 74.20765046048402" height="74.20765046048402" width="395.52" id="SvgjsSvg4025"><g><svg viewBox="0 0 395.52 74.20765046048402" height="74.20765046048402" width="395.52"><g transform="matrix(1,0,0,1,0,0)"><svg width="395.52" viewBox="3.25 -33.9 233.43 43.8" height="74.20765046048402" data-palette-color="url(#c2e5c277-20d0-48ef-97c7-7158af904bab)"><g class="wordmark-text-0" data-fill-palette-color="primary" id="SvgjsG4024"><path d="M14.85-10.9L14.85-10.9 10.95-10.9 10.95 0 3.25 0 3.25-33.7 14.85-33.7Q20.45-33.7 23.93-30.55 27.4-27.4 27.4-22.55L27.4-22.55Q27.4-17 23.78-13.95 20.15-10.9 14.85-10.9ZM13.95-27.55L13.95-27.55 10.95-27.55 10.95-17 13.5-17Q19.6-17 19.6-22.55L19.6-22.55Q19.6-27.55 13.95-27.55ZM40.45-5L40.45-5Q42-5 42.85-5.95 43.7-6.9 43.7-8.55L43.7-8.55 43.7-10.4 41.35-10.4Q39.5-10.4 38.5-9.6 37.5-8.8 37.5-7.55L37.5-7.55Q37.5-5 40.45-5ZM44.05 0L44.05-3.1Q42.45 0.15 37.75 0.15L37.75 0.15Q34.05 0.15 31.97-1.95 29.9-4.05 29.9-7.2L29.9-7.2Q29.9-10.85 32.57-12.88 35.25-14.9 40.5-14.9L40.5-14.9 43.7-14.9 43.7-16.65Q43.7-19.85 39.45-19.85L39.45-19.85Q35.35-19.85 31.85-17.55L31.85-17.55 31.85-24.1Q34.85-25.8 40.5-25.8L40.5-25.8Q45.9-25.8 48.55-23.48 51.2-21.15 51.2-16.25L51.2-16.25 51.2 0 44.05 0ZM80.3-25.35L71.15-0.75Q67.2 9.9 59.1 9.9L59.1 9.9Q57.55 9.9 56.3 9.65L56.3 9.65 56.3 3.85Q57.1 4.05 58 4.05L58 4.05Q62.15 4.05 64-0.4L64-0.4 54.2-25.35 62.15-25.35 64.9-17.45Q65.95-14.4 66.62-12.2 67.3-10 67.45-9.3L67.45-9.3 67.6-8.6Q68.15-10.6 70.3-17.45L70.3-17.45 72.8-25.35 80.3-25.35ZM104.74-9.8L104.74-9.8Q104.74-5.25 101.39-2.43 98.04 0.4 92.49 0.4L92.49 0.4Q86.54 0.4 82.79-1.7L82.79-1.7 82.79-9.45Q87.34-6.15 92.49-6.15L92.49-6.15Q94.24-6.15 95.39-7.08 96.54-8 96.54-9.5L96.54-9.5Q96.54-10 96.39-10.45 96.24-10.9 95.84-11.3 95.44-11.7 95.07-11.98 94.69-12.25 93.97-12.63 93.24-13 92.74-13.25 92.24-13.5 91.27-13.95 90.29-14.4 89.69-14.65L89.69-14.65Q86.44-16.15 84.47-18.35 82.49-20.55 82.49-24.2L82.49-24.2Q82.49-28.55 85.69-31.23 88.89-33.9 94.54-33.9L94.54-33.9Q99.59-33.9 103.24-32.2L103.24-32.2 103.24-25Q99.19-27.35 94.84-27.35L94.84-27.35Q92.89-27.35 91.87-26.55 90.84-25.75 90.84-24.5 90.84-23.25 92.09-22.28 93.34-21.3 95.84-20.2L95.84-20.2Q97.39-19.5 98.42-18.98 99.44-18.45 100.77-17.53 102.09-16.6 102.87-15.58 103.64-14.55 104.19-13.05 104.74-11.55 104.74-9.8ZM124.04-6.6L124.04-0.55Q122.19 0.25 119.04 0.25L119.04 0.25Q110.39 0.25 110.39-8.4L110.39-8.4 110.39-20 106.74-20 106.74-25.35 110.39-25.35 110.39-31.35 117.69-31.35 117.69-25.35 123.59-25.35 123.59-20 117.69-20 117.69-8.35Q117.69-7 118.47-6.3 119.24-5.6 120.49-5.6L120.49-5.6Q122.49-5.6 124.04-6.6L124.04-6.6ZM135.79-12.65L135.79 0 128.49 0 128.54-25.35 135.79-25.35 135.79-20.65Q136.49-22.85 138.11-24.18 139.74-25.5 141.89-25.5L141.89-25.5Q143.09-25.5 143.79-25.3L143.79-25.3 143.79-18.4Q142.59-18.95 141.04-18.95L141.04-18.95Q138.69-18.95 137.24-17.23 135.79-15.5 135.79-12.65L135.79-12.65ZM166.94-7.55L166.94-1.45Q164.34 0.25 158.99 0.25L158.99 0.25Q152.74 0.25 149.26-3.38 145.79-7 145.79-12.7L145.79-12.7Q145.79-18.75 149.16-22.18 152.54-25.6 157.49-25.6L157.49-25.6Q162.59-25.6 165.54-22.63 168.49-19.65 168.49-13.75L168.49-13.75Q168.49-12.6 168.09-9.8L168.09-9.8 153.19-9.8Q153.94-7.7 155.79-6.55 157.64-5.4 160.24-5.4L160.24-5.4Q164.09-5.4 166.94-7.55L166.94-7.55ZM157.79-20.05L157.79-20.05Q156.04-20.05 154.69-18.78 153.34-17.5 152.89-15L152.89-15 161.69-15 161.69-15.6Q161.34-20.05 157.79-20.05ZM182.98-5L182.98-5Q184.53-5 185.38-5.95 186.23-6.9 186.23-8.55L186.23-8.55 186.23-10.4 183.88-10.4Q182.03-10.4 181.03-9.6 180.03-8.8 180.03-7.55L180.03-7.55Q180.03-5 182.98-5ZM186.58 0L186.58-3.1Q184.98 0.15 180.28 0.15L180.28 0.15Q176.58 0.15 174.51-1.95 172.43-4.05 172.43-7.2L172.43-7.2Q172.43-10.85 175.11-12.88 177.78-14.9 183.03-14.9L183.03-14.9 186.23-14.9 186.23-16.65Q186.23-19.85 181.98-19.85L181.98-19.85Q177.88-19.85 174.38-17.55L174.38-17.55 174.38-24.1Q177.38-25.8 183.03-25.8L183.03-25.8Q188.43-25.8 191.08-23.48 193.73-21.15 193.73-16.25L193.73-16.25 193.73 0 186.58 0ZM236.68-16.25L236.68 0 229.38 0 229.38-15.05Q229.38-17.2 228.53-18.45 227.68-19.7 226.08-19.7L226.08-19.7Q224.38-19.7 223.06-18.32 221.73-16.95 221.73-13.4L221.73-13.4 221.73 0 214.43 0 214.43-15.05Q214.43-17.2 213.58-18.45 212.73-19.7 211.13-19.7L211.13-19.7Q209.43-19.7 208.11-18.32 206.78-16.95 206.78-13.4L206.78-13.4 206.78 0 199.48 0 199.48-25.35 206.78-25.35 206.78-21.4Q208.88-25.6 213.93-25.6L213.93-25.6Q219.28-25.6 221.03-20.8L221.03-20.8Q221.88-23.05 223.88-24.33 225.88-25.6 228.58-25.6L228.58-25.6Q232.33-25.6 234.51-23.23 236.68-20.85 236.68-16.25L236.68-16.25Z" fill="white"></path></g></svg></g></svg></g></svg></g></svg></g><g><svg viewBox="0 0 110.58622601179704 97.42722428956947" height="97.42722428956947" width="110.58622601179704"><g><svg xmlns="http://www.w3.org/2000/svg" xmlns:xlink="http://www.w3.org/1999/xlink" version="1.1" x="0" y="0" viewBox="6.3 11.5 87.4 77" style="enable-background:new 0 0 100 100;" xml:space="preserve" height="97.42722428956947" width="110.58622601179704" class="icon-icon-0" data-fill-palette-color="accent" id="SvgjsSvg4023"><path d="M72.3 12.3L71.9 11.5H28.2L6.3 50 28.1 88.5H71.8L93.7 50zM33.3 25.3L9.9 47.7 28.5 14.9zM70.7 14.8L77.1 50.5 36.9 25.8zM35.5 27.3L76.5 52.5 35.5 75.8zM77 54.5L69.8 85.3 37.2 77.2zM33.5 75L9.9 50.5 33.5 27.8zM33.2 77.6L28.6 85.3 11.5 55.1zM35 78.6L66.4 86.5H30.2zM79.3 53.3L90.9 50.8 72.1 84zM90.7 48.9L79.3 51.4 73.4 18.3zM35 24.3L30 13.5H68.2z" fill="black"></path></svg></g></svg></g></svg></g><defs><mask></mask></defs></svg><rect width="395.52" height="73.59164520814508" fill="black" stroke="none" visibility="hidden"></rect></g></mask><linearGradient x1="0" x2="1" y1="0.578" y2="0.595" id="c2e5c277-20d0-48ef-97c7-7158af904bab"><stop stop-color="#6ee2f5" offset="0"></stop><stop stop-color="#6454f0" offset="1"></stop></linearGradient><rect width="395.52" height="73.59164520814508" fill="url(#c2e5c277-20d0-48ef-97c7-7158af904bab)" mask="url(#a9c4d228-1b91-45ae-99a3-91400b43b9b6)" data-fill-palette-color="primary"></rect><mask id="7889c7bf-3759-4770-b86e-d43faa38ed22"><g id="SvgjsG4048"><svg viewBox="0 0 395.52 73.59164520814508" height="73.59164520814508" width="395.52"><g><svg viewBox="0 0 523.6248713019063 97.42722428956947" height="73.59164520814508" width="395.52"><g transform="matrix(1,0,0,1,128.10487130190626,11.609786914542724)"><svg viewBox="0 0 395.52 74.20765046048402" height="74.20765046048402" width="395.52"><g id="SvgjsG4047"><svg viewBox="0 0 395.52 74.20765046048402" height="74.20765046048402" width="395.52" id="SvgjsSvg4046"><g><svg viewBox="0 0 395.52 74.20765046048402" height="74.20765046048402" width="395.52"><g transform="matrix(1,0,0,1,0,0)"><svg width="395.52" viewBox="3.25 -33.9 233.43 43.8" height="74.20765046048402" data-palette-color="url(#c2e5c277-20d0-48ef-97c7-7158af904bab)"><g class="wordmark-text-0" data-fill-palette-color="primary" id="SvgjsG4045"></g></svg></g></svg></g></svg></g></svg></g><g><svg viewBox="0 0 110.58622601179704 97.42722428956947" height="97.42722428956947" width="110.58622601179704"><g><svg xmlns="http://www.w3.org/2000/svg" xmlns:xlink="http://www.w3.org/1999/xlink" version="1.1" x="0" y="0" viewBox="6.3 11.5 87.4 77" style="enable-background:new 0 0 100 100;" xml:space="preserve" height="97.42722428956947" width="110.58622601179704" class="icon-icon-0" data-fill-palette-color="accent" id="SvgjsSvg4044"><path d="M72.3 12.3L71.9 11.5H28.2L6.3 50 28.1 88.5H71.8L93.7 50zM33.3 25.3L9.9 47.7 28.5 14.9zM70.7 14.8L77.1 50.5 36.9 25.8zM35.5 27.3L76.5 52.5 35.5 75.8zM77 54.5L69.8 85.3 37.2 77.2zM33.5 75L9.9 50.5 33.5 27.8zM33.2 77.6L28.6 85.3 11.5 55.1zM35 78.6L66.4 86.5H30.2zM79.3 53.3L90.9 50.8 72.1 84zM90.7 48.9L79.3 51.4 73.4 18.3zM35 24.3L30 13.5H68.2z" fill="white"></path></svg></g></svg></g></svg></g><defs><mask></mask></defs><mask><g id="SvgjsG4043"><svg viewBox="0 0 395.52 73.59164520814508" height="73.59164520814508" width="395.52"><g><svg viewBox="0 0 523.6248713019063 97.42722428956947" height="73.59164520814508" width="395.52"><g transform="matrix(1,0,0,1,128.10487130190626,11.609786914542724)"><svg viewBox="0 0 395.52 74.20765046048402" height="74.20765046048402" width="395.52"><g id="SvgjsG4042"><svg viewBox="0 0 395.52 74.20765046048402" height="74.20765046048402" width="395.52" id="SvgjsSvg4041"><g><svg viewBox="0 0 395.52 74.20765046048402" height="74.20765046048402" width="395.52"><g transform="matrix(1,0,0,1,0,0)"><svg width="395.52" viewBox="3.25 -33.9 233.43 43.8" height="74.20765046048402" data-palette-color="url(#c2e5c277-20d0-48ef-97c7-7158af904bab)"><g class="wordmark-text-0" data-fill-palette-color="primary" id="SvgjsG4040"><path d="M14.85-10.9L14.85-10.9 10.95-10.9 10.95 0 3.25 0 3.25-33.7 14.85-33.7Q20.45-33.7 23.93-30.55 27.4-27.4 27.4-22.55L27.4-22.55Q27.4-17 23.78-13.95 20.15-10.9 14.85-10.9ZM13.95-27.55L13.95-27.55 10.95-27.55 10.95-17 13.5-17Q19.6-17 19.6-22.55L19.6-22.55Q19.6-27.55 13.95-27.55ZM40.45-5L40.45-5Q42-5 42.85-5.95 43.7-6.9 43.7-8.55L43.7-8.55 43.7-10.4 41.35-10.4Q39.5-10.4 38.5-9.6 37.5-8.8 37.5-7.55L37.5-7.55Q37.5-5 40.45-5ZM44.05 0L44.05-3.1Q42.45 0.15 37.75 0.15L37.75 0.15Q34.05 0.15 31.97-1.95 29.9-4.05 29.9-7.2L29.9-7.2Q29.9-10.85 32.57-12.88 35.25-14.9 40.5-14.9L40.5-14.9 43.7-14.9 43.7-16.65Q43.7-19.85 39.45-19.85L39.45-19.85Q35.35-19.85 31.85-17.55L31.85-17.55 31.85-24.1Q34.85-25.8 40.5-25.8L40.5-25.8Q45.9-25.8 48.55-23.48 51.2-21.15 51.2-16.25L51.2-16.25 51.2 0 44.05 0ZM80.3-25.35L71.15-0.75Q67.2 9.9 59.1 9.9L59.1 9.9Q57.55 9.9 56.3 9.65L56.3 9.65 56.3 3.85Q57.1 4.05 58 4.05L58 4.05Q62.15 4.05 64-0.4L64-0.4 54.2-25.35 62.15-25.35 64.9-17.45Q65.95-14.4 66.62-12.2 67.3-10 67.45-9.3L67.45-9.3 67.6-8.6Q68.15-10.6 70.3-17.45L70.3-17.45 72.8-25.35 80.3-25.35ZM104.74-9.8L104.74-9.8Q104.74-5.25 101.39-2.43 98.04 0.4 92.49 0.4L92.49 0.4Q86.54 0.4 82.79-1.7L82.79-1.7 82.79-9.45Q87.34-6.15 92.49-6.15L92.49-6.15Q94.24-6.15 95.39-7.08 96.54-8 96.54-9.5L96.54-9.5Q96.54-10 96.39-10.45 96.24-10.9 95.84-11.3 95.44-11.7 95.07-11.98 94.69-12.25 93.97-12.63 93.24-13 92.74-13.25 92.24-13.5 91.27-13.95 90.29-14.4 89.69-14.65L89.69-14.65Q86.44-16.15 84.47-18.35 82.49-20.55 82.49-24.2L82.49-24.2Q82.49-28.55 85.69-31.23 88.89-33.9 94.54-33.9L94.54-33.9Q99.59-33.9 103.24-32.2L103.24-32.2 103.24-25Q99.19-27.35 94.84-27.35L94.84-27.35Q92.89-27.35 91.87-26.55 90.84-25.75 90.84-24.5 90.84-23.25 92.09-22.28 93.34-21.3 95.84-20.2L95.84-20.2Q97.39-19.5 98.42-18.98 99.44-18.45 100.77-17.53 102.09-16.6 102.87-15.58 103.64-14.55 104.19-13.05 104.74-11.55 104.74-9.8ZM124.04-6.6L124.04-0.55Q122.19 0.25 119.04 0.25L119.04 0.25Q110.39 0.25 110.39-8.4L110.39-8.4 110.39-20 106.74-20 106.74-25.35 110.39-25.35 110.39-31.35 117.69-31.35 117.69-25.35 123.59-25.35 123.59-20 117.69-20 117.69-8.35Q117.69-7 118.47-6.3 119.24-5.6 120.49-5.6L120.49-5.6Q122.49-5.6 124.04-6.6L124.04-6.6ZM135.79-12.65L135.79 0 128.49 0 128.54-25.35 135.79-25.35 135.79-20.65Q136.49-22.85 138.11-24.18 139.74-25.5 141.89-25.5L141.89-25.5Q143.09-25.5 143.79-25.3L143.79-25.3 143.79-18.4Q142.59-18.95 141.04-18.95L141.04-18.95Q138.69-18.95 137.24-17.23 135.79-15.5 135.79-12.65L135.79-12.65ZM166.94-7.55L166.94-1.45Q164.34 0.25 158.99 0.25L158.99 0.25Q152.74 0.25 149.26-3.38 145.79-7 145.79-12.7L145.79-12.7Q145.79-18.75 149.16-22.18 152.54-25.6 157.49-25.6L157.49-25.6Q162.59-25.6 165.54-22.63 168.49-19.65 168.49-13.75L168.49-13.75Q168.49-12.6 168.09-9.8L168.09-9.8 153.19-9.8Q153.94-7.7 155.79-6.55 157.64-5.4 160.24-5.4L160.24-5.4Q164.09-5.4 166.94-7.55L166.94-7.55ZM157.79-20.05L157.79-20.05Q156.04-20.05 154.69-18.78 153.34-17.5 152.89-15L152.89-15 161.69-15 161.69-15.6Q161.34-20.05 157.79-20.05ZM182.98-5L182.98-5Q184.53-5 185.38-5.95 186.23-6.9 186.23-8.55L186.23-8.55 186.23-10.4 183.88-10.4Q182.03-10.4 181.03-9.6 180.03-8.8 180.03-7.55L180.03-7.55Q180.03-5 182.98-5ZM186.58 0L186.58-3.1Q184.98 0.15 180.28 0.15L180.28 0.15Q176.58 0.15 174.51-1.95 172.43-4.05 172.43-7.2L172.43-7.2Q172.43-10.85 175.11-12.88 177.78-14.9 183.03-14.9L183.03-14.9 186.23-14.9 186.23-16.65Q186.23-19.85 181.98-19.85L181.98-19.85Q177.88-19.85 174.38-17.55L174.38-17.55 174.38-24.1Q177.38-25.8 183.03-25.8L183.03-25.8Q188.43-25.8 191.08-23.48 193.73-21.15 193.73-16.25L193.73-16.25 193.73 0 186.58 0ZM236.68-16.25L236.68 0 229.38 0 229.38-15.05Q229.38-17.2 228.53-18.45 227.68-19.7 226.08-19.7L226.08-19.7Q224.38-19.7 223.06-18.32 221.73-16.95 221.73-13.4L221.73-13.4 221.73 0 214.43 0 214.43-15.05Q214.43-17.2 213.58-18.45 212.73-19.7 211.13-19.7L211.13-19.7Q209.43-19.7 208.11-18.32 206.78-16.95 206.78-13.4L206.78-13.4 206.78 0 199.48 0 199.48-25.35 206.78-25.35 206.78-21.4Q208.88-25.6 213.93-25.6L213.93-25.6Q219.28-25.6 221.03-20.8L221.03-20.8Q221.88-23.05 223.88-24.33 225.88-25.6 228.58-25.6L228.58-25.6Q232.33-25.6 234.51-23.23 236.68-20.85 236.68-16.25L236.68-16.25Z" fill="black"></path></g></svg></g></svg></g></svg></g></svg></g><g><svg viewBox="0 0 110.58622601179704 97.42722428956947" height="97.42722428956947" width="110.58622601179704"><g><svg xmlns="http://www.w3.org/2000/svg" xmlns:xlink="http://www.w3.org/1999/xlink" version="1.1" x="0" y="0" viewBox="6.3 11.5 87.4 77" style="enable-background:new 0 0 100 100;" xml:space="preserve" height="97.42722428956947" width="110.58622601179704" class="icon-icon-0" data-fill-palette-color="accent" id="SvgjsSvg4039"><path d="M72.3 12.3L71.9 11.5H28.2L6.3 50 28.1 88.5H71.8L93.7 50zM33.3 25.3L9.9 47.7 28.5 14.9zM70.7 14.8L77.1 50.5 36.9 25.8zM35.5 27.3L76.5 52.5 35.5 75.8zM77 54.5L69.8 85.3 37.2 77.2zM33.5 75L9.9 50.5 33.5 27.8zM33.2 77.6L28.6 85.3 11.5 55.1zM35 78.6L66.4 86.5H30.2zM79.3 53.3L90.9 50.8 72.1 84zM90.7 48.9L79.3 51.4 73.4 18.3zM35 24.3L30 13.5H68.2z" fill="black"></path></svg></g></svg></g></svg></g><defs><mask></mask></defs></svg><rect width="395.52" height="73.59164520814508" fill="black" stroke="none" visibility="hidden"></rect></g></mask></svg><rect width="395.52" height="73.59164520814508" fill="black" stroke="none" visibility="hidden"></rect></g></mask><linearGradient x1="0" x2="1" y1="0.578" y2="0.595" id="4016f7f6-7048-4835-8f05-04267448fd07"><stop stop-color="#6ee2f5" offset="0"></stop><stop stop-color="#6454f0" offset="1"></stop></linearGradient><rect width="395.52" height="73.59164520814508" fill="url(#4016f7f6-7048-4835-8f05-04267448fd07)" mask="url(#7889c7bf-3759-4770-b86e-d43faa38ed22)" data-fill-palette-color="accent"></rect></svg><rect width="395.52" height="73.59164520814508" fill="none" stroke="none" visibility="hidden"></rect></g></svg></g></svg>